<?xml version="1.0" encoding="utf-8"?>
<svg xmlns="http://www.w3.org/2000/svg" style="margin: auto; background: none; display: block; shape-rendering: auto;" width="250" height="201" preserveAspectRatio="xMidYMid">
<style type="text/css">
  text {
    text-anchor: middle; font-size: 80px; opacity: 0;
  }
</style>
<g style="transform-origin:125px 100.5px;transform:scale(1)">
<g transform="translate(125,100.5)">
  <g transform="translate(0,0)"><g class="path" style="transform: matrix(1, 0, 0, 1, 0, 0); transform-origin: -87.72px -7.0504px; animation: 2s linear -1.155s infinite normal forwards running bounce-f8aa53f1-c1d8-40be-a944-2f872cb9f174;"><path d="M24.64-0.08L24.64-0.08L20.08-0.16L20.08-0.16Q19.12-0.16 18.16-0.16L18.16-0.16L3.60 0.56L3.60 0.56Q2.40 0.56 2.40-0.24L2.40-0.24L2.40-0.24Q2.40-0.48 2.64-1.36L2.64-1.36L2.64-1.36Q3.44-3.20 3.80-13.04L3.80-13.04L3.80-13.04Q4.16-22.88 4.16-31L4.16-31L4.16-31Q4.16-39.12 3.84-44.16L3.84-44.16L3.84-44.16Q3.36-51.76 2.24-53.28L2.24-53.28L2.24-53.28Q1.36-54.40 1.36-54.72L1.36-54.72L1.36-54.72Q1.36-56 5.68-56.96L5.68-56.96L5.68-56.96Q10-57.92 11.88-57.92L11.88-57.92L11.88-57.92Q13.76-57.92 14.24-57.72L14.24-57.72L14.24-57.72Q14.72-57.52 14.72-56.88L14.72-56.88L14.72-56.88Q14.72-56.24 14.40-52.80L14.40-52.80L14.40-52.80Q13.60-42.64 13.60-29.16L13.60-29.16L13.60-29.16Q13.60-15.68 14.24-7.60L14.24-7.60L14.24-7.60Q14.24-6.72 15.76-6.08L15.76-6.08L15.76-6.08Q17.28-5.44 19.52-5.44L19.52-5.44L19.52-5.44Q27.36-5.44 27.36-17.52L27.36-17.52L27.36-17.52Q27.36-20.88 27-21.68L27-21.68L27-21.68Q26.64-22.48 26.64-22.72L26.64-22.72L26.64-22.72Q26.64-23.52 27.76-23.52L27.76-23.52L27.76-23.52Q28.64-23.52 30.12-22.64L30.12-22.64L30.12-22.64Q31.60-21.76 32.56-20.44L32.56-20.44L32.56-20.44Q33.52-19.12 34.32-16.28L34.32-16.28L34.32-16.28Q35.12-13.44 35.12-9.60L35.12-9.60L35.12-9.60Q35.12-0.08 32.80-0.08L32.80-0.08L32.80-0.08Q28.72-0.08 24.64-0.08" fill="#5680e9" stroke="none" stroke-width="none" transform="translate(-105.96002197265625,21.629599304199218)" style="fill: rgb(86, 128, 233);"></path></g><g class="path" style="transform: matrix(1, 0, 0, 1, 0, 0); transform-origin: -53.28px 4.3496px; animation: 2s linear -0.99s infinite normal forwards running bounce-f8aa53f1-c1d8-40be-a944-2f872cb9f174;"><path d="M45.92-30.16L45.92-30.16L45.92-30.16Q43.84-30.08 42.92-30.04L42.92-30.04L42.92-30.04Q42-30 42-30.48L42-30.48L42-30.48Q42-30.96 42.48-31.44L42.48-31.44L42.48-31.44Q47.60-36.16 59.76-36.16L59.76-36.16L59.76-36.16Q63.92-36.16 66.32-35.44L66.32-35.44L67.12-35.20L67.12-35.20Q68.08-34.80 68.08-34.32L68.08-34.32L68.08-34.32Q68.08-33.92 67.52-33.68L67.52-33.68L67.52-33.68Q65.36-33.04 63.36-31.64L63.36-31.64L63.36-31.64Q61.36-30.24 61.36-29.68L61.36-29.68L61.84-29.12L61.84-29.12Q64.40-27.68 65.80-24.56L65.80-24.56L65.80-24.56Q67.20-21.44 67.36-19.04L67.36-19.04L67.52-16.56L67.52-16.56Q67.52-8.64 63.12-3.52L63.12-3.52L63.12-3.52Q58.72 1.60 51.12 1.60L51.12 1.60L51.12 1.60Q47.28 1.60 44.48 0.24L44.48 0.24L44.48 0.24Q41.68-1.12 40.36-2.84L40.36-2.84L40.36-2.84Q39.04-4.56 38.24-6.72L38.24-6.72L38.24-6.72Q37.28-9.68 37.28-12.84L37.28-12.84L37.28-12.84Q37.28-16 38.36-19.20L38.36-19.20L38.36-19.20Q39.44-22.40 40.84-23.92L40.84-23.92L40.84-23.92Q42.24-25.44 44-26.40L44-26.40L44-26.40Q46.24-27.60 47.60-27.60L47.60-27.60L47.60-27.60Q48.96-27.60 48.96-27.04L48.96-27.04L48.48-26.24L48.48-26.24Q46.72-24.16 45.96-20.80L45.96-20.80L45.96-20.80Q45.20-17.44 45.20-14.84L45.20-14.84L45.20-14.84Q45.20-12.24 45.84-9.68L45.84-9.68L45.84-9.68Q46.48-7.12 47.28-5.88L47.28-5.88L47.28-5.88Q48.08-4.64 49.12-4L49.12-4L49.12-4Q50.64-3.04 52.32-3.04L52.32-3.04L52.32-3.04Q54-3.04 55.60-4.36L55.60-4.36L55.60-4.36Q57.20-5.68 57.92-7.84L57.92-7.84L57.92-7.84Q59.36-11.84 59.36-16.08L59.36-16.08L59.36-16.08Q59.36-22.80 55.96-26.48L55.96-26.48L55.96-26.48Q52.56-30.16 45.92-30.16" fill="#5680e9" stroke="none" stroke-width="none" transform="translate(-105.96002197265625,21.629599304199218)" style="fill: rgb(132, 206, 235);"></path></g><g class="path" style="transform: matrix(1, 0, 0, 1, 0, 0); transform-origin: -20.44px 4.0696px; animation: 2s linear -0.825s infinite normal forwards running bounce-f8aa53f1-c1d8-40be-a944-2f872cb9f174;"><path d="M98.40-24L98.40-24L98.24-13.76L98.24-13.76Q98.24-3.12 100.56-0.96L100.56-0.96L100.56-0.96Q100.88-0.64 100.88-0.24L100.88-0.24L100.88-0.24Q100.88 0.96 95.72 0.96L95.72 0.96L95.72 0.96Q90.56 0.96 90.24-2.08L90.24-2.08L90.24-2.08Q90.16-2.80 90.16-5.04L90.16-5.04L90.48-17.84L90.48-17.84Q90.48-18.40 89.84-18.40L89.84-18.40L89.84-18.40Q86-18.40 82.64-16.24L82.64-16.24L82.64-16.24Q79.28-14.08 79.28-10.72L79.28-10.72L79.28-10.72Q79.28-8.96 80.24-7.76L80.24-7.76L80.24-7.76Q81.20-6.56 82.60-6.56L82.60-6.56L82.60-6.56Q84-6.56 84.92-7.12L84.92-7.12L84.92-7.12Q85.84-7.68 86-7.76L86-7.76L86-7.76Q87.36-7.60 87.36-4.92L87.36-4.92L87.36-4.92Q87.36-2.24 84.88-0.60L84.88-0.60L84.88-0.60Q82.40 1.04 79.68 1.04L79.68 1.04L79.68 1.04Q76.96 1.04 75 0.08L75 0.08L75 0.08Q73.04-0.88 72.16-2.08L72.16-2.08L72.16-2.08Q71.28-3.28 70.72-4.80L70.72-4.80L70.72-4.80Q70.16-6.64 70.16-8L70.16-8L70.16-8Q70.16-13.60 73.68-16.96L73.68-16.96L73.68-16.96Q77.20-20.32 82.72-21.76L82.72-21.76L82.72-21.76Q90-23.20 90.32-24.40L90.32-24.40L90.32-24.40Q90.56-25.28 90.56-27.36L90.56-27.36L90.56-27.36Q90.56-31.60 86.24-31.60L86.24-31.60L86.24-31.60Q84.40-31.60 82.96-30.44L82.96-30.44L82.96-30.44Q81.52-29.28 81.52-27.52L81.52-27.52L82-25.60L82-25.60Q81.84-24.24 79.12-24L79.12-24L78.24-23.92L78.24-23.92Q75.84-23.92 74.44-25.12L74.44-25.12L74.44-25.12Q73.04-26.32 73.04-28.32L73.04-28.32L73.04-28.32Q73.04-29.60 73.88-31.16L73.88-31.16L73.88-31.16Q74.72-32.72 76-33.68L76-33.68L76-33.68Q77.28-34.64 79.96-35.40L79.96-35.40L79.96-35.40Q82.64-36.16 85.12-36.16L85.12-36.16L85.12-36.16Q87.60-36.16 88.96-36L88.96-36L88.96-36Q90.32-35.84 92.68-35.24L92.68-35.24L92.68-35.24Q95.04-34.64 96.60-32.96L96.60-32.96L96.60-32.96Q98.16-31.28 98.28-29.40L98.28-29.40L98.28-29.40Q98.40-27.52 98.40-24" fill="#5680e9" stroke="none" stroke-width="none" transform="translate(-105.96002197265625,21.629599304199218)" style="fill: rgb(90, 185, 234);"></path></g><g class="path" style="transform: matrix(1, 0, 0, 1, 0, 0); transform-origin: 11.8px -5.6904px; animation: 2s linear -0.66s infinite normal forwards running bounce-f8aa53f1-c1d8-40be-a944-2f872cb9f174;"><path d="M119.28-35.92L119.28-35.92L119.28-35.92Q120.72-35.92 121.88-35.56L121.88-35.56L121.88-35.56Q123.04-35.20 123.12-35.20L123.12-35.20L123.60-35.60L123.28-44.32L123.28-44.32Q123.12-46.56 122.32-48.16L122.32-48.16L122.32-48.16Q121.52-49.76 120.88-50.24L120.88-50.24L120.16-50.64L120.16-50.64Q119.68-50.96 119.68-51.36L119.68-51.36L119.68-51.36Q119.68-52.56 123.40-54.16L123.40-54.16L123.40-54.16Q127.12-55.76 129.20-55.76L129.20-55.76L129.20-55.76Q131.28-55.76 131.44-54.88L131.44-54.88L131.44-54.88Q131.84-52.16 131.84-44.52L131.84-44.52L131.84-44.52Q131.84-36.88 131.48-29.52L131.48-29.52L131.48-29.52Q131.12-22.16 131.12-12.84L131.12-12.84L131.12-12.84Q131.12-3.52 132.32-1.12L132.32-1.12L132.32-1.12Q132.64-0.56 132.64-0.08L132.64-0.08L132.64-0.08Q132.64 1.12 129.20 1.12L129.20 1.12L129.20 1.12Q122.64 1.12 122.64-2L122.64-2L122.64-2Q122.48-3.28 122.48-5.96L122.48-5.96L122.48-5.96Q122.48-8.64 123-15.96L123-15.96L123-15.96Q123.52-23.28 123.52-27.24L123.52-27.24L123.52-27.24Q123.52-31.20 119.56-31.20L119.56-31.20L119.56-31.20Q115.60-31.20 113.52-26.56L113.52-26.56L113.52-26.56Q111.44-21.92 111.44-17.28L111.44-17.28L111.44-17.28Q111.44-7.44 116.40-7.44L116.40-7.44L116.40-7.44Q117.12-7.44 117.80-7.72L117.80-7.72L117.80-7.72Q118.48-8 118.64-8L118.64-8L118.64-8Q119.28-8 119.64-7.20L119.64-7.20L119.64-7.20Q120-6.40 120-5.60L120-5.60L120-5.60Q120-2.88 117.84-1L117.84-1L117.84-1Q115.68 0.88 112.56 0.88L112.56 0.88L112.56 0.88Q107.76 0.88 105.32-3.32L105.32-3.32L105.32-3.32Q102.88-7.52 102.88-13.76L102.88-13.76L102.88-13.76Q102.88-21.68 106.64-28.48L106.64-28.48L106.64-28.48Q108.56-31.84 111.84-33.88L111.84-33.88L111.84-33.88Q115.12-35.92 119.28-35.92" fill="#5680e9" stroke="none" stroke-width="none" transform="translate(-105.96002197265625,21.629599304199218)" style="fill: rgb(193, 200, 228);"></path></g><g class="path" style="transform: matrix(1, 0, 0, 1, 0, 0); transform-origin: 37.08px -24.4904px; animation: 2s linear -0.495s infinite normal forwards running bounce-f8aa53f1-c1d8-40be-a944-2f872cb9f174;"><path d="M144.48-42.80L144.48-42.80L142.56-42.88L142.56-42.88Q140.40-42.88 139.76-41.84L139.76-41.84L139.76-41.84Q139.60-41.60 139.36-41.60L139.36-41.60L139.36-41.60Q138.32-41.60 138.32-45.16L138.32-45.16L138.32-45.16Q138.32-48.72 139.40-49.68L139.40-49.68L139.40-49.68Q140.48-50.64 143.16-50.64L143.16-50.64L143.16-50.64Q145.84-50.64 146.80-49.72L146.80-49.72L146.80-49.72Q147.76-48.80 147.76-46.64L147.76-46.64L147.76-46.64Q147.76-44.48 147.04-43.64L147.04-43.64L147.04-43.64Q146.32-42.80 144.48-42.80" fill="#5680e9" stroke="none" stroke-width="none" transform="translate(-105.96002197265625,21.629599304199218)" style="fill: rgb(136, 96, 208);"></path></g><g class="path" style="transform: matrix(1, 0, 0, 1, 0, 0); transform-origin: 36.04px 4.4696px; animation: 2s linear -0.33s infinite normal forwards running bounce-f8aa53f1-c1d8-40be-a944-2f872cb9f174;"><path d="M138.08-2.40L138.08-2.40L138.96-21.04L138.96-21.04Q138.96-27.68 137.44-30.08L137.44-30.08L137.44-30.08Q136.96-30.88 136.32-31.28L136.32-31.28L136.32-31.28Q135.84-31.44 135.84-31.92L135.84-31.92L135.84-31.92Q135.84-33.36 139.92-34.72L139.92-34.72L139.92-34.72Q144-36.08 145.88-36.08L145.88-36.08L145.88-36.08Q147.76-36.08 147.84-35.12L147.84-35.12L147.84-35.12Q147.84-33.52 147.40-26.04L147.40-26.04L147.40-26.04Q146.96-18.56 146.96-10.32L146.96-10.32L146.96-10.32Q146.96-2.08 147.92-0.08L147.92-0.08L147.92-0.08Q148.16 0.32 148.16 0.72L148.16 0.72L148.16 0.72Q148.16 1.76 145.12 1.76L145.12 1.76L145.12 1.76Q142.08 1.76 138.88 0.16L138.88 0.16L138.88 0.16Q138.08-0.24 138.08-2.40" fill="#5680e9" stroke="none" stroke-width="none" transform="translate(-105.96002197265625,21.629599304199218)" style="fill: rgb(86, 128, 233);"></path></g><g class="path" style="transform: matrix(1, 0, 0, 1, 0, 0); transform-origin: 61.72px 4.1496px; animation: 2s linear -0.165s infinite normal forwards running bounce-f8aa53f1-c1d8-40be-a944-2f872cb9f174;"><path d="M153.04 0.56L153.04 0.56L153.04 0.56Q154.48-8.08 154.48-20.16L154.48-20.16L154.48-20.16Q154.48-32.24 153.76-35.84L153.76-35.84L153.76-35.84Q153.76-36.88 156.16-36.88L156.16-36.88L156.16-36.88Q159.84-36.88 161.04-34.08L161.04-34.08L161.04-34.08Q161.12-33.84 161.44-33.84L161.44-33.84L161.44-33.84Q161.76-33.84 161.92-34L161.92-34L161.92-34Q164.40-36.56 169.60-36.56L169.60-36.56L169.60-36.56Q174.80-36.56 177.84-33.92L177.84-33.92L177.84-33.92Q180.88-31.28 180.88-26.24L180.88-26.24L180.88-26.24Q180.88-23.20 180.36-17.60L180.36-17.60L180.36-17.60Q179.84-12 179.84-9.28L179.84-9.28L179.84-9.28Q179.84-2.80 182 0.08L182 0.08L182 0.08Q182.32 0.48 182.32 0.88L182.32 0.88L182.32 0.88Q182.32 1.92 180.08 1.92L180.08 1.92L180.08 1.92Q170.16 1.92 170.16-6.88L170.16-6.88L170.16-6.88Q170.16-10.24 171.68-16.24L171.68-16.24L171.68-16.24Q173.20-22.24 173.20-25.36L173.20-25.36L173.20-25.36Q173.20-31.76 167.92-31.76L167.92-31.76L167.92-31.76Q165.36-31.76 164.04-30.24L164.04-30.24L164.04-30.24Q162.72-28.72 162.56-26.76L162.56-26.76L162.56-26.76Q162.40-24.80 162.40-19.36L162.40-19.36L162.40-19.36Q162.40-11.04 162.96-4.88L162.96-4.88L163.12-3.12L163.12-3.12Q163.12-0.88 160.20 0.36L160.20 0.36L160.20 0.36Q157.28 1.60 155.16 1.60L155.16 1.60L155.16 1.60Q153.04 1.60 153.04 0.56" fill="#5680e9" stroke="none" stroke-width="none" transform="translate(-105.96002197265625,21.629599304199218)" style="fill: rgb(132, 206, 235);"></path></g><g class="path" style="transform: matrix(1, 0, 0, 1, 0, 0); transform-origin: 92.64px 15.6296px; animation: 2s linear 0s infinite normal forwards running bounce-f8aa53f1-c1d8-40be-a944-2f872cb9f174;"><path d="M190.24-32.28L190.24-32.28L190.24-32.28Q192-34.08 194.88-35.32L194.88-35.32L194.88-35.32Q197.76-36.56 200.40-36.56L200.40-36.56L200.40-36.56Q203.04-36.56 205.76-35.36L205.76-35.36L205.76-35.36Q206.08-35.36 206.24-35.52L206.24-35.52L206.24-35.52Q208.32-37.60 212.32-37.60L212.32-37.60L212.32-37.60Q213.28-37.60 213.28-36.72L213.28-36.72L213.28-36.72Q213.28-36.64 213.12-36L213.12-36L213.12-36Q212.96-35.36 212.72-34.12L212.72-34.12L212.72-34.12Q212.48-32.88 212.32-31.12L212.32-31.12L212.32-31.12Q211.76-26.56 211.72-21.04L211.72-21.04L211.72-21.04Q211.68-15.52 211.68-10L211.68-10L211.92 6.80L211.92 6.80Q211.92 14.88 207.76 20.24L207.76 20.24L207.76 20.24Q206.08 22.40 202.68 24L202.68 24L202.68 24Q199.28 25.60 194.72 25.60L194.72 25.60L194.72 25.60Q193.68 24.96 193.68 24.32L193.68 24.32L193.68 24.32Q193.68 23.68 194.56 23.28L194.56 23.28L194.56 23.28Q199.60 20.96 201.76 12.28L201.76 12.28L201.76 12.28Q203.92 3.60 203.92-14.08L203.92-14.08L203.76-25.28L203.52-30.72L203.52-30.72Q203.52-31.44 201.28-31.76L201.28-31.76L201.28-31.76Q198.40-31.76 196.44-29.88L196.44-29.88L196.44-29.88Q194.48-28 193.76-24.96L193.76-24.96L193.76-24.96Q192.48-20.08 192.48-16.52L192.48-16.52L192.48-16.52Q192.48-12.96 193.64-10.24L193.64-10.24L193.64-10.24Q194.80-7.52 197.68-7.52L197.68-7.52L197.68-7.52Q198.48-7.52 199.16-7.84L199.16-7.84L199.16-7.84Q199.84-8.16 200.08-8.16L200.08-8.16L200.08-8.16Q200.88-8.16 200.88-6.56L200.88-6.56L200.88-6.56Q200.88-4.96 200.64-3.96L200.64-3.96L200.64-3.96Q200.40-2.96 199.68-1.76L199.68-1.76L199.68-1.76Q198.08 0.88 193.44 0.88L193.44 0.88L193.44 0.88Q188.80 0.88 186.80-2.48L186.80-2.48L186.80-2.48Q184.72-5.92 184.40-8.64L184.40-8.64L184.40-8.64Q183.92-12.72 183.92-14L183.92-14L183.92-14Q183.92-15.28 183.96-16.04L183.96-16.04L183.96-16.04Q184-16.80 184.36-19.08L184.36-19.08L184.36-19.08Q184.72-21.36 185.32-23.40L185.32-23.40L185.32-23.40Q185.92-25.44 187.20-27.96L187.20-27.96L187.20-27.96Q188.48-30.48 190.24-32.28" fill="#5680e9" stroke="none" stroke-width="none" transform="translate(-105.96002197265625,21.629599304199218)" style="fill: rgb(90, 185, 234);"></path></g></g>
</g>
</g>
<style id="bounce-f8aa53f1-c1d8-40be-a944-2f872cb9f174" data-anikit="">@keyframes bounce-f8aa53f1-c1d8-40be-a944-2f872cb9f174
{
  0% {
    animation-timing-function: cubic-bezier(0.1361,0.2514,0.2175,0.8786);
    transform: translate(0,0px) scaleY(1);
  }
  37% {
    animation-timing-function: cubic-bezier(0.7674,0.1844,0.8382,0.7157);
    transform: translate(0,-4.995px) scaleY(1);
  }
  72% {
    animation-timing-function: cubic-bezier(0.1201,0.2317,0.2325,0.9374);
    transform: translate(0,0px) scaleY(1);
  }
  87% {
    animation-timing-function: cubic-bezier(0.7292,0.218,0.8203,0.6948);
    transform: translate(0,18.4px) scaleY(0.632);
  }
  100% {
    transform: translate(0,0px) scaleY(1);
  }
}</style></svg>